<?xml version="1.0" encoding="UTF-8"?>
<!DOCTYPE svg PUBLIC "-//W3C//DTD SVG 1.1//EN" "http://www.w3.org/Graphics/SVG/1.1/DTD/svg11.dtd">
<svg xmlns="http://www.w3.org/2000/svg" version="1.1" viewBox="0 0 31 28" width="310" height="280">
  <g>
    <rect x="5" y="0" width="21" height="20" fill="#776D41"/>
    <rect x="4" y="1" width="23" height="19" fill="#776D41"/>
    <rect x="5" y="1" width="21" height="18" fill="#BBAC77"/>
    <rect x="5" y="1" width="20" height="17" fill="#F4E4A8"/>
    <rect x="7" y="4" width="17" height="12" fill="#776D41"/>
    <rect x="8" y="3" width="15" height="14" fill="#776D41"/>
    <rect x="12" y="20" width="7" height="1" fill="#776D41"/>
    <rect x="13" y="20" width="5" height="1" fill="#F4E4A8"/>
    <rect x="1" y="21" width="29" height="7" fill="#776D41"/>
    <rect x="0" y="22" width="31" height="5" fill="#776D41"/>
    <rect x="1" y="22" width="29" height="5" fill="#BBAC77"/>
    <rect x="1" y="22" width="28" height="4" fill="#F4E4A8"/>
    <rect x="2" y="23" width="2" height="2" fill="#776D41"/>
    <rect x="20" y="24" width="1" height="1" fill="#776D41"/>
    <rect x="22" y="24" width="6" height="1" fill="#776D41"/>
  </g>
  <g>
    <rect x="8" y="4" width="15" height="12" fill="black">
      <animate attributeName="fill" to="white" dur="50ms" begin="1s" fill="freeze"/>
      <animate attributeName="fill" to="#999" dur="50ms" begin="1050ms" fill="freeze"/>
      <animate attributeName="fill" to="#85FFFF" dur="50ms" begin="6s" fill="freeze"/>
    </rect>
    <rect x="9" y="5" width="1" height="1" fill="white" opacity="0">
      <animate attributeName="opacity" to="1" dur="10ms" begin="2s" fill="freeze"/>
      <animate attributeName="opacity" to="0" dur="10ms" begin="5s" fill="freeze"/>
    </rect>
    <rect x="11" y="5" width="1" height="1" fill="white" opacity="0">
      <animate attributeName="opacity" to="1" dur="10ms" begin="3s" fill="freeze"/>
      <animate attributeName="opacity" to="0" dur="10ms" begin="5s" fill="freeze"/>
    </rect>
    <rect x="13" y="5" width="1" height="1" fill="white" opacity="0">
      <animate attributeName="opacity" to="1" dur="10ms" begin="4s" fill="freeze"/>
      <animate attributeName="opacity" to="0" dur="10ms" begin="5s" fill="freeze"/>
    </rect>
    <g opacity="0">
      <animate attributeName="opacity" to="1" dur="10ms" begin="7s" fill="freeze"/>
      <rect x="14" y="13" width="1" height="1" fill="#480001"/>
      <rect x="15" y="8" width="1" height="1" fill="#900013"/>
      <rect x="14" y="10" width="1" height="1" fill="#AF1720"/>
      <rect x="12" y="11" width="1" height="1" fill="#480001"/>
      <rect x="14" y="6" width="1" height="1" fill="#AF1720"/>
      <rect x="19" y="7" width="1" height="1" fill="#670001"/>
      <rect x="13" y="5" width="1" height="1" fill="#480001"/>
      <rect x="14" y="11" width="1" height="1" fill="#DD3936"/>
      <rect x="18" y="6" width="1" height="1" fill="#AF1720"/>
      <rect x="16" y="11" width="1" height="1" fill="#900013"/>
      <rect x="15" y="14" width="1" height="1" fill="#480001"/>
      <rect x="12" y="9" width="1" height="1" fill="#FD5B51"/>
      <rect x="12" y="8" width="1" height="1" fill="#DD3936"/>
      <rect x="16" y="7" width="1" height="1" fill="#900013"/>
      <rect x="13" y="6" width="1" height="1" fill="#AF1720"/>
      <rect x="9" y="7" width="1" height="1" fill="#480001"/>
      <rect x="9" y="8" width="1" height="1" fill="#480001"/>
    </g>
    <g opacity="0">
      <animate attributeName="opacity" to="1" dur="10ms" begin="7.5s" fill="freeze"/>
      <rect x="15" y="10" width="1" height="1" fill="#AF1720"/>
      <rect x="17" y="6" width="1" height="1" fill="#AF1720"/>
      <rect x="15" y="12" width="1" height="1" fill="#AF1720"/>
      <rect x="12" y="5" width="1" height="1" fill="#480001"/>
      <rect x="10" y="6" width="1" height="1" fill="#480001"/>
      <rect x="13" y="11" width="1" height="1" fill="#FD5B51"/>
      <rect x="12" y="6" width="1" height="1" fill="#AF1720"/>
      <rect x="20" y="6" width="1" height="1" fill="#480001"/>
      <rect x="18" y="5" width="1" height="1" fill="#480001"/>
      <rect x="17" y="7" width="1" height="1" fill="#AF1720"/>
      <rect x="11" y="10" width="1" height="1" fill="#480001"/>
      <rect x="18" y="8" width="1" height="1" fill="#670001"/>
      <rect x="18" y="10" width="1" height="1" fill="#670001"/>
      <rect x="15" y="7" width="1" height="1" fill="#900013"/>
      <rect x="13" y="12" width="1" height="1" fill="#480001"/>
      <rect x="14" y="7" width="1" height="1" fill="#900013"/>
      <rect x="15" y="9" width="1" height="1" fill="#AF1720"/>
    </g>
    <g opacity="0">
      <animate attributeName="opacity" to="1" dur="10ms" begin="8s" fill="freeze"/>
      <rect x="15" y="5" width="1" height="1" fill="#480001"/>
      <rect x="19" y="6" width="1" height="1" fill="#AF1720"/>
      <rect x="10" y="9" width="1" height="1" fill="#480001"/>
      <rect x="17" y="5" width="1" height="1" fill="#480001"/>
      <rect x="19" y="5" width="1" height="1" fill="#480001"/>
      <rect x="21" y="7" width="1" height="1" fill="#480001"/>
      <rect x="12" y="10" width="1" height="1" fill="#FD5B51"/>
      <rect x="13" y="10" width="1" height="1" fill="#FD5B51"/>
      <rect x="20" y="7" width="1" height="1" fill="#670001"/>
      <rect x="17" y="11" width="1" height="1" fill="#670001"/>
      <rect x="18" y="7" width="1" height="1" fill="#AF1720"/>
      <rect x="15" y="6" width="1" height="1" fill="#900013"/>
      <rect x="14" y="9" width="1" height="1" fill="#AF1720"/>
      <rect x="17" y="8" width="1" height="1" fill="#900013"/>
      <rect x="13" y="8" width="1" height="1" fill="#900013"/>
      <rect x="16" y="8" width="1" height="1" fill="#900013"/>
      <rect x="14" y="12" width="1" height="1" fill="#FD5B51"/>
      <rect x="16" y="6" width="1" height="1" fill="#AF1720"/>
      <rect x="19" y="9" width="1" height="1" fill="#670001"/>
    </g>
    <g opacity="0">
      <animate attributeName="opacity" to="1" dur="10ms" begin="8.5s" fill="freeze"/>
      <rect x="18" y="9" width="1" height="1" fill="#670001"/>
      <rect x="14" y="8" width="1" height="1" fill="#900013"/>
      <rect x="19" y="10" width="1" height="1" fill="#480001"/>
      <rect x="21" y="8" width="1" height="1" fill="#480001"/>
      <rect x="13" y="7" width="1" height="1" fill="#AF1720"/>
      <rect x="11" y="5" width="1" height="1" fill="#480001"/>
      <rect x="15" y="11" width="1" height="1" fill="#AF1720"/>
      <rect x="10" y="7" width="1" height="1" fill="#FD5B51"/>
      <rect x="20" y="8" width="1" height="1" fill="#670001"/>
      <rect x="16" y="10" width="1" height="1" fill="#AF1720"/>
      <rect x="11" y="8" width="1" height="1" fill="#FD5B51"/>
      <rect x="19" y="8" width="1" height="1" fill="#670001"/>
      <rect x="16" y="12" width="1" height="1" fill="#670001"/>
      <rect x="11" y="6" width="1" height="1" fill="#AF1720"/>
    </g>
    <g opacity="0">
      <animate attributeName="opacity" to="1" dur="10ms" begin="9s" fill="freeze"/>
      <rect x="16" y="5" width="1" height="1" fill="#480001"/>
      <rect x="20" y="9" width="1" height="1" fill="#480001"/>
      <rect x="12" y="7" width="1" height="1" fill="#AF1720"/>
      <rect x="17" y="10" width="1" height="1" fill="#670001"/>
      <rect x="14" y="5" width="1" height="1" fill="#480001"/>
      <rect x="17" y="9" width="1" height="1" fill="#900013"/>
      <rect x="16" y="9" width="1" height="1" fill="#AF1720"/>
      <rect x="18" y="11" width="1" height="1" fill="#480001"/>
      <rect x="15" y="13" width="1" height="1" fill="#670001"/>
      <rect x="13" y="9" width="1" height="1" fill="#DD3936"/>
      <rect x="10" y="8" width="1" height="1" fill="#FD5B51"/>
      <rect x="11" y="7" width="1" height="1" fill="#FD5B51"/>
      <rect x="17" y="12" width="1" height="1" fill="#480001"/>
      <rect x="11" y="9" width="1" height="1" fill="#FD5B51"/>
      <rect x="16" y="13" width="1" height="1" fill="#480001"/>
    </g>
  </g>
</svg>